<svg width="43" height="44" viewBox="0 0 43 44" fill="none" xmlns="http://www.w3.org/2000/svg">
<path d="M43 36.5H0V32.5H2.15V18.562C2.15 8.586 10.8145 0.5 21.5 0.5C32.1855 0.5 40.85 8.586 40.85 18.562V32.5H43V36.5ZM6.45 32.5H36.55V18.562C36.55 10.796 29.8119 4.5 21.5 4.5C13.1881 4.5 6.45 10.796 6.45 18.562V32.5ZM16.125 38.5H26.875C26.875 39.8261 26.3087 41.0979 25.3007 42.0355C24.2927 42.9732 22.9255 43.5 21.5 43.5C20.0745 43.5 18.7073 42.9732 17.6993 42.0355C16.6913 41.0979 16.125 39.8261 16.125 38.5Z" fill="black"/>
</svg>
