<svg width="249" height="140" viewBox="0 0 249 140" fill="none" xmlns="http://www.w3.org/2000/svg">
<g filter="url(#filter0_d_111_1375)">
<rect x="24" y="16" width="201" height="92" rx="8" fill="white"/>
</g>
<path d="M131.242 50.1702C130.427 50.1702 129.669 50.0309 128.967 49.7525C128.276 49.4637 127.668 49.0614 127.142 48.5457C126.626 48.03 126.224 47.4317 125.935 46.751C125.646 46.0599 125.502 45.3173 125.502 44.5231C125.502 43.7289 125.646 42.9914 125.935 42.3106C126.224 41.6196 126.626 41.0213 127.142 40.5159C127.658 40.0105 128.261 39.6186 128.952 39.3401C129.653 39.0513 130.411 38.9069 131.226 38.9069C132.093 38.9069 132.861 39.0461 133.532 39.3246C134.212 39.6031 134.805 39.9848 135.311 40.4695L133.686 42.1095C133.397 41.8001 133.047 41.5577 132.634 41.3823C132.232 41.207 131.763 41.1193 131.226 41.1193C130.752 41.1193 130.313 41.2018 129.911 41.3669C129.519 41.5216 129.179 41.7485 128.89 42.0476C128.612 42.3467 128.39 42.7077 128.225 43.1306C128.07 43.5535 127.993 44.0177 127.993 44.5231C127.993 45.0388 128.07 45.5081 128.225 45.931C128.39 46.3539 128.612 46.7149 128.89 47.014C129.179 47.3131 129.519 47.5452 129.911 47.7102C130.313 47.8752 130.752 47.9578 131.226 47.9578C131.783 47.9578 132.268 47.8701 132.681 47.6947C133.093 47.5194 133.449 47.277 133.748 46.9676L135.388 48.6076C134.862 49.0923 134.259 49.474 133.578 49.7525C132.908 50.0309 132.129 50.1702 131.242 50.1702ZM140.3 50.1702C139.526 50.1702 138.825 50 138.196 49.6596C137.577 49.3089 137.087 48.8345 136.726 48.2362C136.365 47.638 136.184 46.9676 136.184 46.2249C136.184 45.4823 136.365 44.817 136.726 44.2291C137.087 43.6412 137.577 43.177 138.196 42.8367C138.815 42.486 139.516 42.3106 140.3 42.3106C141.084 42.3106 141.785 42.4808 142.404 42.8212C143.023 43.1616 143.513 43.6309 143.874 44.2291C144.235 44.817 144.415 45.4823 144.415 46.2249C144.415 46.9676 144.235 47.638 143.874 48.2362C143.513 48.8345 143.023 49.3089 142.404 49.6596C141.785 50 141.084 50.1702 140.3 50.1702ZM140.3 48.0196C140.64 48.0196 140.939 47.9474 141.197 47.803C141.455 47.6483 141.651 47.4369 141.785 47.1687C141.929 46.8902 142.002 46.5756 142.002 46.2249C142.002 45.8743 141.929 45.57 141.785 45.3121C141.641 45.0439 141.44 44.8377 141.182 44.6933C140.934 44.5385 140.64 44.4612 140.3 44.4612C139.97 44.4612 139.676 44.5385 139.418 44.6933C139.16 44.8377 138.959 45.0439 138.815 45.3121C138.67 45.5803 138.598 45.8897 138.598 46.2404C138.598 46.5808 138.67 46.8902 138.815 47.1687C138.959 47.4369 139.16 47.6483 139.418 47.803C139.676 47.9474 139.97 48.0196 140.3 48.0196ZM150.912 50V45.7144C150.912 45.3224 150.788 45.0078 150.54 44.7706C150.303 44.5231 149.999 44.3993 149.628 44.3993C149.37 44.3993 149.143 44.456 148.947 44.5695C148.751 44.6726 148.596 44.8273 148.483 45.0336C148.369 45.2296 148.312 45.4565 148.312 45.7144L147.4 45.2657C147.4 44.6778 147.529 44.1621 147.786 43.7186C148.044 43.275 148.4 42.9347 148.854 42.6974C149.318 42.4499 149.839 42.3261 150.417 42.3261C150.974 42.3261 151.464 42.4602 151.886 42.7284C152.32 42.9862 152.66 43.3318 152.908 43.765C153.155 44.1982 153.279 44.6726 153.279 45.1883V50H150.912ZM145.945 50V42.4808H148.312V50H145.945ZM158.338 53.3728C157.513 53.3728 156.786 53.2284 156.156 52.9396C155.538 52.6611 155.048 52.264 154.687 51.7483L156.141 50.294C156.409 50.6137 156.708 50.8561 157.038 51.0211C157.379 51.1862 157.786 51.2687 158.261 51.2687C158.848 51.2687 159.307 51.1243 159.638 50.8355C159.978 50.5467 160.148 50.1392 160.148 49.6132V47.6947L160.55 46.0548L160.195 44.4148V42.4808H162.515V49.5513C162.515 50.3249 162.335 50.9953 161.974 51.5626C161.613 52.1299 161.118 52.5734 160.488 52.8932C159.859 53.2129 159.142 53.3728 158.338 53.3728ZM158.23 49.7679C157.539 49.7679 156.925 49.6029 156.389 49.2728C155.852 48.9428 155.429 48.4941 155.12 47.9268C154.81 47.3595 154.656 46.7303 154.656 46.0393C154.656 45.3379 154.81 44.7087 155.12 44.1518C155.429 43.5845 155.852 43.1409 156.389 42.8212C156.925 42.4911 157.539 42.3261 158.23 42.3261C158.745 42.3261 159.204 42.4241 159.607 42.6201C160.019 42.8057 160.349 43.0739 160.597 43.4246C160.855 43.765 160.999 44.1621 161.03 44.6159V47.4781C160.999 47.9217 160.855 48.3188 160.597 48.6694C160.349 49.0098 160.019 49.278 159.607 49.474C159.194 49.6699 158.735 49.7679 158.23 49.7679ZM158.678 47.6638C159.008 47.6638 159.292 47.5916 159.529 47.4472C159.777 47.3028 159.962 47.112 160.086 46.8747C160.22 46.6272 160.287 46.3487 160.287 46.0393C160.287 45.7299 160.22 45.4514 160.086 45.2038C159.962 44.9563 159.777 44.7603 159.529 44.6159C159.292 44.4715 159.008 44.3993 158.678 44.3993C158.359 44.3993 158.075 44.4715 157.827 44.6159C157.58 44.7603 157.389 44.9563 157.255 45.2038C157.121 45.4514 157.054 45.7299 157.054 46.0393C157.054 46.3281 157.121 46.6014 157.255 46.8593C157.389 47.1068 157.575 47.3028 157.812 47.4472C158.059 47.5916 158.348 47.6638 158.678 47.6638ZM164.538 50V42.4808H166.905V50H164.538ZM166.905 45.8691L165.915 45.0955C166.111 44.2188 166.441 43.5381 166.905 43.0533C167.369 42.5685 168.014 42.3261 168.839 42.3261C169.2 42.3261 169.514 42.3828 169.782 42.4963C170.061 42.5994 170.303 42.7645 170.51 42.9914L169.102 44.7706C168.999 44.6572 168.87 44.5695 168.715 44.5076C168.56 44.4457 168.385 44.4148 168.189 44.4148C167.797 44.4148 167.482 44.5385 167.245 44.7861C167.018 45.0233 166.905 45.3843 166.905 45.8691ZM174.421 50.1547C173.73 50.1547 173.111 49.9845 172.564 49.6442C172.028 49.3038 171.6 48.8396 171.28 48.2517C170.971 47.6638 170.816 46.9934 170.816 46.2404C170.816 45.4875 170.971 44.817 171.28 44.2291C171.6 43.6412 172.028 43.177 172.564 42.8367C173.111 42.4963 173.73 42.3261 174.421 42.3261C174.926 42.3261 175.38 42.4241 175.782 42.6201C176.195 42.816 176.53 43.0894 176.788 43.4401C177.046 43.7804 177.19 44.1724 177.221 44.6159V47.8649C177.19 48.3084 177.046 48.7055 176.788 49.0562C176.541 49.3966 176.211 49.6648 175.798 49.8608C175.385 50.0567 174.926 50.1547 174.421 50.1547ZM174.901 48.0196C175.406 48.0196 175.813 47.8546 176.123 47.5246C176.432 47.1842 176.587 46.7561 176.587 46.2404C176.587 45.8897 176.515 45.5803 176.37 45.3121C176.236 45.0439 176.04 44.8377 175.782 44.6933C175.535 44.5385 175.246 44.4612 174.916 44.4612C174.586 44.4612 174.292 44.5385 174.034 44.6933C173.787 44.8377 173.586 45.0439 173.431 45.3121C173.286 45.5803 173.214 45.8897 173.214 46.2404C173.214 46.5808 173.286 46.8851 173.431 47.1532C173.575 47.4214 173.776 47.6329 174.034 47.7876C174.292 47.9423 174.581 48.0196 174.901 48.0196ZM176.494 50V47.9732L176.85 46.1476L176.494 44.3219V42.4808H178.815V50H176.494ZM181.901 50V39.371H184.268V50H181.901ZM180.199 44.4921V42.4808H185.97V44.4921H180.199ZM189.952 50.1857C189.508 50.1857 189.07 50.1289 188.637 50.0155C188.214 49.902 187.817 49.7421 187.445 49.5359C187.084 49.3193 186.775 49.0717 186.517 48.7932L187.863 47.4317C188.111 47.6999 188.405 47.9113 188.745 48.0661C189.085 48.2105 189.457 48.2827 189.859 48.2827C190.137 48.2827 190.349 48.2414 190.493 48.1589C190.648 48.0764 190.725 47.9629 190.725 47.8185C190.725 47.6329 190.633 47.4936 190.447 47.4008C190.272 47.2976 190.045 47.21 189.766 47.1378C189.488 47.0552 189.194 46.9676 188.884 46.8747C188.575 46.7819 188.281 46.653 188.002 46.488C187.724 46.3229 187.497 46.096 187.322 45.8072C187.146 45.5081 187.059 45.1316 187.059 44.6778C187.059 44.193 187.182 43.7753 187.43 43.4246C187.677 43.0636 188.028 42.7799 188.482 42.5737C188.936 42.3674 189.467 42.2642 190.076 42.2642C190.715 42.2642 191.303 42.3777 191.839 42.6046C192.386 42.8212 192.829 43.1461 193.17 43.5793L191.824 44.9408C191.587 44.6623 191.318 44.4663 191.019 44.3529C190.731 44.2394 190.447 44.1827 190.168 44.1827C189.9 44.1827 189.699 44.224 189.565 44.3065C189.431 44.3787 189.364 44.487 189.364 44.6314C189.364 44.7861 189.452 44.9099 189.627 45.0027C189.802 45.0955 190.029 45.178 190.308 45.2502C190.586 45.3224 190.88 45.4101 191.19 45.5133C191.499 45.6164 191.793 45.7556 192.071 45.931C192.35 46.1063 192.577 46.3436 192.752 46.6427C192.927 46.9315 193.015 47.3131 193.015 47.7876C193.015 48.5199 192.737 49.1027 192.18 49.5359C191.633 49.9691 190.89 50.1857 189.952 50.1857Z" fill="#111A24"/>
<path d="M109.87 66V59.1672H110.52L110.796 60.2404V66H109.87ZM114.596 66L110.402 60.3979L110.52 59.1672L114.724 64.7595L114.596 66ZM114.596 66L114.32 64.9859V59.1672H115.246V66H114.596ZM118.98 66.0985C118.52 66.0985 118.107 65.9902 117.739 65.7736C117.372 65.557 117.08 65.2649 116.863 64.8973C116.646 64.5232 116.538 64.1064 116.538 63.6469C116.538 63.194 116.646 62.7871 116.863 62.4261C117.08 62.0585 117.372 61.7664 117.739 61.5498C118.107 61.3332 118.52 61.2249 118.98 61.2249C119.433 61.2249 119.843 61.3332 120.211 61.5498C120.585 61.7599 120.88 62.0487 121.097 62.4162C121.313 62.7838 121.422 63.194 121.422 63.6469C121.422 64.1064 121.313 64.5232 121.097 64.8973C120.88 65.2649 120.585 65.557 120.211 65.7736C119.843 65.9902 119.433 66.0985 118.98 66.0985ZM118.98 65.2419C119.275 65.2419 119.538 65.173 119.767 65.0351C119.997 64.8973 120.178 64.7102 120.309 64.4739C120.44 64.2311 120.506 63.9554 120.506 63.6469C120.506 63.345 120.437 63.0759 120.299 62.8396C120.168 62.6033 119.987 62.4195 119.758 62.2882C119.534 62.1504 119.275 62.0815 118.98 62.0815C118.684 62.0815 118.422 62.1504 118.192 62.2882C117.962 62.4195 117.782 62.6033 117.651 62.8396C117.519 63.0759 117.454 63.345 117.454 63.6469C117.454 63.9554 117.519 64.2311 117.651 64.4739C117.782 64.7102 117.962 64.8973 118.192 65.0351C118.422 65.173 118.684 65.2419 118.98 65.2419ZM123.765 66L121.914 61.3234H122.839L124.178 64.9662H123.883L125.212 61.3234H125.724L127.053 64.9662H126.758L128.097 61.3234H129.022L127.181 66H126.66L125.311 62.4655H125.636L124.277 66H123.765ZM133.675 66.0394L131.647 61.3234H132.632L134.138 65.0154H133.823L135.408 61.3234H136.393L134.207 66.0394H133.675ZM132.336 67.9593L133.715 65.1336L134.207 66.0394L133.321 67.9593H132.336ZM139.214 66.0985C138.755 66.0985 138.341 65.9902 137.974 65.7736C137.606 65.557 137.314 65.2649 137.097 64.8973C136.881 64.5232 136.773 64.1064 136.773 63.6469C136.773 63.194 136.881 62.7871 137.097 62.4261C137.314 62.0585 137.606 61.7664 137.974 61.5498C138.341 61.3332 138.755 61.2249 139.214 61.2249C139.667 61.2249 140.077 61.3332 140.445 61.5498C140.819 61.7599 141.114 62.0487 141.331 62.4162C141.548 62.7838 141.656 63.194 141.656 63.6469C141.656 64.1064 141.548 64.5232 141.331 64.8973C141.114 65.2649 140.819 65.557 140.445 65.7736C140.077 65.9902 139.667 66.0985 139.214 66.0985ZM139.214 65.2419C139.51 65.2419 139.772 65.173 140.002 65.0351C140.232 64.8973 140.412 64.7102 140.543 64.4739C140.675 64.2311 140.74 63.9554 140.74 63.6469C140.74 63.345 140.671 63.0759 140.534 62.8396C140.402 62.6033 140.222 62.4195 139.992 62.2882C139.769 62.1504 139.51 62.0815 139.214 62.0815C138.919 62.0815 138.656 62.1504 138.427 62.2882C138.197 62.4195 138.016 62.6033 137.885 62.8396C137.754 63.0759 137.688 63.345 137.688 63.6469C137.688 63.9554 137.754 64.2311 137.885 64.4739C138.016 64.7102 138.197 64.8973 138.427 65.0351C138.656 65.173 138.919 65.2419 139.214 65.2419ZM144.675 66.0985C144.295 66.0985 143.95 66.0131 143.642 65.8425C143.34 65.6653 143.103 65.4224 142.933 65.1139C142.762 64.8054 142.677 64.4477 142.677 64.0407V61.3234H143.563V64.0014C143.563 64.2573 143.606 64.4805 143.691 64.6709C143.783 64.8546 143.914 64.9958 144.085 65.0942C144.255 65.1927 144.456 65.2419 144.685 65.2419C145.033 65.2419 145.306 65.1336 145.503 64.917C145.699 64.6938 145.798 64.3886 145.798 64.0014V61.3234H146.684V64.0407C146.684 64.4477 146.599 64.8054 146.428 65.1139C146.257 65.4224 146.021 65.6653 145.719 65.8425C145.424 66.0131 145.076 66.0985 144.675 66.0985ZM152.337 66.0985C151.878 66.0985 151.461 65.9902 151.087 65.7736C150.719 65.557 150.427 65.2649 150.211 64.8973C150.001 64.5232 149.896 64.1097 149.896 63.6568C149.896 63.1973 150.001 62.7838 150.211 62.4162C150.427 62.0487 150.719 61.7599 151.087 61.5498C151.461 61.3332 151.878 61.2249 152.337 61.2249C152.698 61.2249 153.033 61.2938 153.342 61.4317C153.65 61.5629 153.916 61.7566 154.139 62.0126L153.548 62.6033C153.404 62.4326 153.227 62.3046 153.017 62.2193C152.813 62.1274 152.587 62.0815 152.337 62.0815C152.042 62.0815 151.779 62.1504 151.55 62.2882C151.32 62.4195 151.139 62.6033 151.008 62.8396C150.877 63.0759 150.811 63.3483 150.811 63.6568C150.811 63.9653 150.877 64.2377 151.008 64.4739C151.139 64.7102 151.32 64.8973 151.55 65.0351C151.779 65.173 152.042 65.2419 152.337 65.2419C152.587 65.2419 152.813 65.1992 153.017 65.1139C153.227 65.022 153.407 64.8907 153.558 64.7201L154.139 65.3108C153.922 65.5602 153.657 65.7539 153.342 65.8917C153.033 66.0295 152.698 66.0985 152.337 66.0985ZM157.051 66.0985C156.625 66.0985 156.237 65.9934 155.889 65.7834C155.542 65.5668 155.266 65.2747 155.062 64.9071C154.865 64.5396 154.767 64.1261 154.767 63.6666C154.767 63.2072 154.865 62.7936 155.062 62.4261C155.266 62.0585 155.538 61.7664 155.88 61.5498C156.227 61.3332 156.618 61.2249 157.051 61.2249C157.406 61.2249 157.721 61.3004 157.996 61.4514C158.279 61.5958 158.505 61.7992 158.676 62.0618C158.846 62.3178 158.941 62.6164 158.961 62.9577V64.3656C158.941 64.7004 158.846 64.999 158.676 65.2616C158.512 65.5241 158.288 65.7309 158.006 65.8819C157.73 66.0263 157.412 66.0985 157.051 66.0985ZM157.199 65.2616C157.639 65.2616 157.993 65.1139 158.262 64.8185C158.531 64.5166 158.666 64.1326 158.666 63.6666C158.666 63.345 158.603 63.066 158.479 62.8297C158.361 62.5869 158.19 62.3998 157.967 62.2685C157.744 62.1307 157.484 62.0618 157.189 62.0618C156.894 62.0618 156.631 62.1307 156.401 62.2685C156.178 62.4064 156.001 62.5967 155.87 62.8396C155.745 63.0759 155.683 63.3483 155.683 63.6568C155.683 63.9718 155.745 64.2508 155.87 64.4936C156.001 64.7299 156.181 64.917 156.411 65.0548C156.641 65.1927 156.903 65.2616 157.199 65.2616ZM158.607 66V64.7398L158.774 63.5977L158.607 62.4655V61.3234H159.503V66H158.607ZM164.242 66V63.2728C164.242 62.9183 164.13 62.6263 163.907 62.3965C163.684 62.1668 163.395 62.0519 163.04 62.0519C162.804 62.0519 162.594 62.1045 162.41 62.2095C162.226 62.3145 162.082 62.4589 161.977 62.6427C161.872 62.8265 161.82 63.0365 161.82 63.2728L161.455 63.066C161.455 62.7116 161.534 62.3965 161.692 62.1209C161.849 61.8452 162.069 61.6286 162.351 61.4711C162.633 61.307 162.952 61.2249 163.306 61.2249C163.661 61.2249 163.972 61.3135 164.242 61.4907C164.517 61.668 164.734 61.901 164.891 62.1898C165.049 62.472 165.128 62.7739 165.128 63.0956V66H164.242ZM160.933 66V61.3234H161.82V66H160.933ZM170.635 66.0985C170.202 66.0985 169.815 65.9934 169.474 65.7834C169.132 65.5668 168.86 65.2747 168.657 64.9071C168.46 64.5396 168.361 64.1261 168.361 63.6666C168.361 63.2072 168.46 62.7936 168.657 62.4261C168.86 62.0585 169.132 61.7664 169.474 61.5498C169.815 61.3332 170.202 61.2249 170.635 61.2249C170.983 61.2249 171.298 61.3004 171.581 61.4514C171.863 61.5958 172.089 61.7992 172.26 62.0618C172.437 62.3178 172.536 62.6164 172.555 62.9577V64.3656C172.536 64.7004 172.441 64.999 172.27 65.2616C172.099 65.5241 171.873 65.7309 171.591 65.8819C171.308 66.0263 170.99 66.0985 170.635 66.0985ZM170.783 65.2616C171.079 65.2616 171.335 65.1927 171.551 65.0548C171.774 64.917 171.948 64.7299 172.073 64.4936C172.198 64.2508 172.26 63.9751 172.26 63.6666C172.26 63.345 172.194 63.066 172.063 62.8297C171.938 62.5934 171.764 62.4064 171.541 62.2685C171.325 62.1307 171.069 62.0618 170.773 62.0618C170.478 62.0618 170.219 62.1307 169.996 62.2685C169.772 62.4064 169.595 62.5967 169.464 62.8396C169.339 63.0759 169.277 63.3483 169.277 63.6568C169.277 63.9718 169.339 64.2508 169.464 64.4936C169.595 64.7299 169.772 64.917 169.996 65.0548C170.225 65.1927 170.488 65.2616 170.783 65.2616ZM173.097 66H172.201V64.7398L172.368 63.5977L172.201 62.4655V58.9703H173.097V66ZM176.694 66.0985C176.228 66.0985 175.808 65.9934 175.433 65.7834C175.059 65.5668 174.764 65.2747 174.547 64.9071C174.331 64.5396 174.222 64.1228 174.222 63.6568C174.222 63.1973 174.327 62.7838 174.537 62.4162C174.754 62.0487 175.043 61.7599 175.404 61.5498C175.771 61.3332 176.182 61.2249 176.635 61.2249C177.068 61.2249 177.448 61.3234 177.777 61.5203C178.111 61.7172 178.371 61.9896 178.554 62.3375C178.745 62.6853 178.84 63.0792 178.84 63.5189C178.84 63.5846 178.837 63.6568 178.83 63.7355C178.824 63.8077 178.81 63.8931 178.791 63.9915H174.843V63.2531H178.318L177.993 63.5386C177.993 63.2236 177.937 62.9577 177.826 62.7411C177.714 62.518 177.557 62.3473 177.353 62.2292C177.15 62.1045 176.904 62.0421 176.615 62.0421C176.313 62.0421 176.047 62.1077 175.817 62.239C175.588 62.3703 175.41 62.5541 175.286 62.7904C175.161 63.0267 175.099 63.3056 175.099 63.6272C175.099 63.9554 175.164 64.2442 175.296 64.4936C175.427 64.7365 175.614 64.9268 175.857 65.0647C176.1 65.1959 176.379 65.2616 176.694 65.2616C176.956 65.2616 177.196 65.2156 177.412 65.1237C177.636 65.0319 177.826 64.894 177.983 64.7102L178.554 65.2911C178.331 65.5537 178.056 65.7539 177.727 65.8917C177.406 66.0295 177.061 66.0985 176.694 66.0985ZM182.083 66.0985C181.624 66.0985 181.207 65.9902 180.833 65.7736C180.465 65.557 180.173 65.2649 179.957 64.8973C179.747 64.5232 179.642 64.1097 179.642 63.6568C179.642 63.1973 179.747 62.7838 179.957 62.4162C180.173 62.0487 180.465 61.7599 180.833 61.5498C181.207 61.3332 181.624 61.2249 182.083 61.2249C182.444 61.2249 182.779 61.2938 183.087 61.4317C183.396 61.5629 183.662 61.7566 183.885 62.0126L183.294 62.6033C183.15 62.4326 182.973 62.3046 182.763 62.2193C182.559 62.1274 182.333 62.0815 182.083 62.0815C181.788 62.0815 181.525 62.1504 181.296 62.2882C181.066 62.4195 180.885 62.6033 180.754 62.8396C180.623 63.0759 180.557 63.3483 180.557 63.6568C180.557 63.9653 180.623 64.2377 180.754 64.4739C180.885 64.7102 181.066 64.8973 181.296 65.0351C181.525 65.173 181.788 65.2419 182.083 65.2419C182.333 65.2419 182.559 65.1992 182.763 65.1139C182.973 65.022 183.153 64.8907 183.304 64.7201L183.885 65.3108C183.668 65.5602 183.403 65.7539 183.087 65.8917C182.779 66.0295 182.444 66.0985 182.083 66.0985ZM184.904 66V58.9703H185.791V66H184.904ZM189.108 66.0985C188.727 66.0985 188.383 66.0131 188.074 65.8425C187.772 65.6653 187.536 65.4224 187.365 65.1139C187.195 64.8054 187.109 64.4477 187.109 64.0407V61.3234H187.996V64.0014C187.996 64.2573 188.038 64.4805 188.124 64.6709C188.215 64.8546 188.347 64.9958 188.517 65.0942C188.688 65.1927 188.888 65.2419 189.118 65.2419C189.466 65.2419 189.738 65.1336 189.935 64.917C190.132 64.6938 190.231 64.3886 190.231 64.0014V61.3234H191.117V64.0407C191.117 64.4477 191.031 64.8054 190.861 65.1139C190.69 65.4224 190.454 65.6653 190.152 65.8425C189.856 66.0131 189.509 66.0985 189.108 66.0985ZM193.164 66V59.3641H194.05V66H193.164ZM192.012 62.1307V61.3234H197.988V62.1307H192.012ZM195.95 66V59.3641H196.836V66H195.95ZM201.02 66.0985C200.554 66.0985 200.134 65.9934 199.76 65.7834C199.386 65.5668 199.091 65.2747 198.874 64.9071C198.657 64.5396 198.549 64.1228 198.549 63.6568C198.549 63.1973 198.654 62.7838 198.864 62.4162C199.081 62.0487 199.37 61.7599 199.731 61.5498C200.098 61.3332 200.508 61.2249 200.961 61.2249C201.394 61.2249 201.775 61.3234 202.103 61.5203C202.438 61.7172 202.697 61.9896 202.881 62.3375C203.072 62.6853 203.167 63.0792 203.167 63.5189C203.167 63.5846 203.163 63.6568 203.157 63.7355C203.15 63.8077 203.137 63.8931 203.117 63.9915H199.169V63.2531H202.645L202.32 63.5386C202.32 63.2236 202.264 62.9577 202.153 62.7411C202.041 62.518 201.883 62.3473 201.68 62.2292C201.477 62.1045 201.23 62.0421 200.942 62.0421C200.64 62.0421 200.374 62.1077 200.144 62.239C199.914 62.3703 199.737 62.5541 199.612 62.7904C199.488 63.0267 199.425 63.3056 199.425 63.6272C199.425 63.9554 199.491 64.2442 199.622 64.4936C199.754 64.7365 199.941 64.9268 200.183 65.0647C200.426 65.1959 200.705 65.2616 201.02 65.2616C201.283 65.2616 201.522 65.2156 201.739 65.1237C201.962 65.0319 202.153 64.894 202.31 64.7102L202.881 65.2911C202.658 65.5537 202.382 65.7539 202.054 65.8917C201.733 66.0295 201.388 66.0985 201.02 66.0985ZM204.274 66V61.3234H205.16V66H204.274ZM205.16 63.3319L204.825 63.1842C204.825 62.5869 204.963 62.111 205.238 61.7566C205.514 61.4021 205.911 61.2249 206.43 61.2249C206.666 61.2249 206.879 61.2676 207.07 61.3529C207.26 61.4317 207.437 61.5662 207.601 61.7566L207.02 62.3572C206.922 62.2521 206.814 62.1767 206.696 62.1307C206.577 62.0848 206.44 62.0618 206.282 62.0618C205.954 62.0618 205.685 62.1668 205.475 62.3768C205.265 62.5869 205.16 62.9052 205.16 63.3319ZM123.505 78.0394L121.477 73.3234H122.462L123.968 77.0154H123.653L125.238 73.3234H126.223L124.037 78.0394H123.505ZM122.166 79.9593L123.545 77.1336L124.037 78.0394L123.151 79.9593H122.166ZM129.044 78.0985C128.585 78.0985 128.171 77.9902 127.804 77.7736C127.436 77.557 127.144 77.2649 126.927 76.8973C126.711 76.5232 126.602 76.1064 126.602 75.6469C126.602 75.194 126.711 74.7871 126.927 74.4261C127.144 74.0585 127.436 73.7664 127.804 73.5498C128.171 73.3332 128.585 73.2249 129.044 73.2249C129.497 73.2249 129.907 73.3332 130.275 73.5498C130.649 73.7599 130.944 74.0487 131.161 74.4162C131.378 74.7838 131.486 75.194 131.486 75.6469C131.486 76.1064 131.378 76.5232 131.161 76.8973C130.944 77.2649 130.649 77.557 130.275 77.7736C129.907 77.9902 129.497 78.0985 129.044 78.0985ZM129.044 77.2419C129.34 77.2419 129.602 77.173 129.832 77.0351C130.062 76.8973 130.242 76.7102 130.373 76.4739C130.505 76.2311 130.57 75.9554 130.57 75.6469C130.57 75.345 130.501 75.0759 130.363 74.8396C130.232 74.6033 130.052 74.4195 129.822 74.2882C129.599 74.1504 129.34 74.0815 129.044 74.0815C128.749 74.0815 128.486 74.1504 128.257 74.2882C128.027 74.4195 127.846 74.6033 127.715 74.8396C127.584 75.0759 127.518 75.345 127.518 75.6469C127.518 75.9554 127.584 76.2311 127.715 76.4739C127.846 76.7102 128.027 76.8973 128.257 77.0351C128.486 77.173 128.749 77.2419 129.044 77.2419ZM134.505 78.0985C134.125 78.0985 133.78 78.0131 133.472 77.8425C133.17 77.6653 132.933 77.4224 132.763 77.1139C132.592 76.8054 132.507 76.4477 132.507 76.0407V73.3234H133.393V76.0014C133.393 76.2573 133.436 76.4805 133.521 76.6709C133.613 76.8546 133.744 76.9958 133.915 77.0942C134.085 77.1927 134.286 77.2419 134.515 77.2419C134.863 77.2419 135.136 77.1336 135.332 76.917C135.529 76.6938 135.628 76.3886 135.628 76.0014V73.3234H136.514V76.0407C136.514 76.4477 136.429 76.8054 136.258 77.1139C136.087 77.4224 135.851 77.6653 135.549 77.8425C135.254 78.0131 134.906 78.0985 134.505 78.0985ZM137.842 78V73.3234H138.728V78H137.842ZM138.728 75.3319L138.394 75.1842C138.394 74.5869 138.531 74.111 138.807 73.7566C139.083 73.4021 139.48 73.2249 139.998 73.2249C140.235 73.2249 140.448 73.2676 140.638 73.3529C140.829 73.4317 141.006 73.5662 141.17 73.7566L140.589 74.3572C140.491 74.2521 140.382 74.1767 140.264 74.1307C140.146 74.0848 140.008 74.0618 139.851 74.0618C139.522 74.0618 139.253 74.1668 139.043 74.3768C138.833 74.5869 138.728 74.9052 138.728 75.3319ZM145.783 78.0985C145.52 78.0985 145.271 78.0656 145.035 78C144.805 77.9278 144.592 77.8293 144.395 77.7046C144.198 77.5734 144.027 77.4191 143.883 77.2419L144.454 76.6709C144.624 76.8809 144.821 77.0384 145.044 77.1434C145.268 77.2419 145.517 77.2911 145.793 77.2911C146.068 77.2911 146.282 77.2452 146.433 77.1533C146.584 77.0548 146.659 76.9203 146.659 76.7496C146.659 76.579 146.597 76.4477 146.472 76.3558C146.354 76.2573 146.2 76.1786 146.009 76.1195C145.819 76.0539 145.615 75.9915 145.399 75.9324C145.189 75.8668 144.989 75.7848 144.798 75.6863C144.608 75.5878 144.45 75.4533 144.326 75.2826C144.208 75.112 144.148 74.8855 144.148 74.6033C144.148 74.3211 144.217 74.0782 144.355 73.8747C144.493 73.6647 144.683 73.5039 144.926 73.3923C145.176 73.2807 145.474 73.2249 145.822 73.2249C146.19 73.2249 146.515 73.2906 146.797 73.4218C147.086 73.5465 147.322 73.7369 147.506 73.9929L146.935 74.5639C146.803 74.3933 146.639 74.262 146.442 74.1701C146.252 74.0782 146.036 74.0323 145.793 74.0323C145.537 74.0323 145.34 74.0782 145.202 74.1701C145.071 74.2554 145.005 74.3768 145.005 74.5344C145.005 74.6919 145.064 74.8133 145.182 74.8987C145.3 74.984 145.455 75.0562 145.645 75.1153C145.842 75.1743 146.045 75.2367 146.255 75.3023C146.465 75.3614 146.666 75.4434 146.856 75.5485C147.046 75.6535 147.201 75.7946 147.319 75.9718C147.443 76.149 147.506 76.3821 147.506 76.6709C147.506 77.1106 147.348 77.4585 147.033 77.7145C146.725 77.9705 146.308 78.0985 145.783 78.0985ZM151.1 78.0985C150.745 78.0985 150.424 78.0263 150.135 77.8819C149.853 77.7309 149.626 77.5241 149.456 77.2616C149.285 76.999 149.19 76.7004 149.17 76.3656V74.9577C149.19 74.6164 149.285 74.3178 149.456 74.0618C149.633 73.7992 149.863 73.5958 150.145 73.4514C150.434 73.3004 150.752 73.2249 151.1 73.2249C151.526 73.2249 151.91 73.3332 152.252 73.5498C152.6 73.7664 152.872 74.0585 153.069 74.4261C153.266 74.7936 153.364 75.2072 153.364 75.6666C153.364 76.1261 153.266 76.5396 153.069 76.9071C152.872 77.2747 152.6 77.5668 152.252 77.7834C151.91 77.9934 151.526 78.0985 151.1 78.0985ZM150.952 77.2616C151.248 77.2616 151.507 77.1927 151.73 77.0548C151.953 76.917 152.13 76.7299 152.262 76.4936C152.393 76.2508 152.459 75.9718 152.459 75.6568C152.459 75.3483 152.393 75.0726 152.262 74.8297C152.13 74.5869 151.953 74.3998 151.73 74.2685C151.507 74.1307 151.251 74.0618 150.962 74.0618C150.667 74.0618 150.407 74.1307 150.184 74.2685C149.961 74.3998 149.787 74.5869 149.662 74.8297C149.538 75.0726 149.475 75.3516 149.475 75.6666C149.475 75.9751 149.534 76.2508 149.653 76.4936C149.777 76.7299 149.951 76.917 150.174 77.0548C150.404 77.1927 150.663 77.2616 150.952 77.2616ZM148.638 79.9593V73.3234H149.525V74.5541L149.357 75.6863L149.525 76.8284V79.9593H148.638ZM156.498 78.0985C156.072 78.0985 155.684 77.9934 155.337 77.7834C154.989 77.5668 154.713 77.2747 154.51 76.9071C154.313 76.5396 154.214 76.1261 154.214 75.6666C154.214 75.2072 154.313 74.7936 154.51 74.4261C154.713 74.0585 154.985 73.7664 155.327 73.5498C155.675 73.3332 156.065 73.2249 156.498 73.2249C156.853 73.2249 157.168 73.3004 157.443 73.4514C157.726 73.5958 157.952 73.7992 158.123 74.0618C158.293 74.3178 158.389 74.6164 158.408 74.9577V76.3656C158.389 76.7004 158.293 76.999 158.123 77.2616C157.959 77.5241 157.736 77.7309 157.453 77.8819C157.178 78.0263 156.859 78.0985 156.498 78.0985ZM156.646 77.2616C157.086 77.2616 157.44 77.1139 157.709 76.8185C157.978 76.5166 158.113 76.1326 158.113 75.6666C158.113 75.345 158.051 75.066 157.926 74.8297C157.808 74.5869 157.637 74.3998 157.414 74.2685C157.191 74.1307 156.932 74.0618 156.636 74.0618C156.341 74.0618 156.078 74.1307 155.848 74.2685C155.625 74.4064 155.448 74.5967 155.317 74.8396C155.192 75.0759 155.13 75.3483 155.13 75.6568C155.13 75.9718 155.192 76.2508 155.317 76.4936C155.448 76.7299 155.629 76.917 155.858 77.0548C156.088 77.1927 156.351 77.2616 156.646 77.2616ZM158.054 78V76.7398L158.221 75.5977L158.054 74.4655V73.3234H158.95V78H158.054ZM162.517 78.0985C162.058 78.0985 161.641 77.9902 161.267 77.7736C160.899 77.557 160.607 77.2649 160.39 76.8973C160.18 76.5232 160.075 76.1097 160.075 75.6568C160.075 75.1973 160.18 74.7838 160.39 74.4162C160.607 74.0487 160.899 73.7599 161.267 73.5498C161.641 73.3332 162.058 73.2249 162.517 73.2249C162.878 73.2249 163.213 73.2938 163.521 73.4317C163.83 73.5629 164.096 73.7566 164.319 74.0126L163.728 74.6033C163.584 74.4326 163.406 74.3046 163.196 74.2193C162.993 74.1274 162.766 74.0815 162.517 74.0815C162.222 74.0815 161.959 74.1504 161.729 74.2882C161.5 74.4195 161.319 74.6033 161.188 74.8396C161.057 75.0759 160.991 75.3483 160.991 75.6568C160.991 75.9653 161.057 76.2377 161.188 76.4739C161.319 76.7102 161.5 76.8973 161.729 77.0351C161.959 77.173 162.222 77.2419 162.517 77.2419C162.766 77.2419 162.993 77.1992 163.196 77.1139C163.406 77.022 163.587 76.8907 163.738 76.7201L164.319 77.3108C164.102 77.5602 163.836 77.7539 163.521 77.8917C163.213 78.0295 162.878 78.0985 162.517 78.0985ZM167.408 78.0985C166.942 78.0985 166.522 77.9934 166.148 77.7834C165.774 77.5668 165.478 77.2747 165.262 76.9071C165.045 76.5396 164.937 76.1228 164.937 75.6568C164.937 75.1973 165.042 74.7838 165.252 74.4162C165.469 74.0487 165.757 73.7599 166.118 73.5498C166.486 73.3332 166.896 73.2249 167.349 73.2249C167.782 73.2249 168.163 73.3234 168.491 73.5203C168.826 73.7172 169.085 73.9896 169.269 74.3375C169.459 74.6853 169.554 75.0792 169.554 75.5189C169.554 75.5846 169.551 75.6568 169.545 75.7355C169.538 75.8077 169.525 75.8931 169.505 75.9915H165.557V75.2531H169.033L168.708 75.5386C168.708 75.2236 168.652 74.9577 168.54 74.7411C168.429 74.518 168.271 74.3473 168.068 74.2292C167.864 74.1045 167.618 74.0421 167.329 74.0421C167.027 74.0421 166.762 74.1077 166.532 74.239C166.302 74.3703 166.125 74.5541 166 74.7904C165.875 75.0267 165.813 75.3056 165.813 75.6272C165.813 75.9554 165.879 76.2442 166.01 76.4936C166.141 76.7365 166.328 76.9268 166.571 77.0647C166.814 77.1959 167.093 77.2616 167.408 77.2616C167.671 77.2616 167.91 77.2156 168.127 77.1237C168.35 77.0319 168.54 76.894 168.698 76.7102L169.269 77.2911C169.046 77.5537 168.77 77.7539 168.442 77.8917C168.12 78.0295 167.776 78.0985 167.408 78.0985ZM172.148 78.0985C171.885 78.0985 171.636 78.0656 171.4 78C171.17 77.9278 170.957 77.8293 170.76 77.7046C170.563 77.5734 170.392 77.4191 170.248 77.2419L170.819 76.6709C170.989 76.8809 171.186 77.0384 171.409 77.1434C171.633 77.2419 171.882 77.2911 172.158 77.2911C172.433 77.2911 172.647 77.2452 172.798 77.1533C172.949 77.0548 173.024 76.9203 173.024 76.7496C173.024 76.579 172.962 76.4477 172.837 76.3558C172.719 76.2573 172.565 76.1786 172.374 76.1195C172.184 76.0539 171.981 75.9915 171.764 75.9324C171.554 75.8668 171.354 75.7848 171.163 75.6863C170.973 75.5878 170.815 75.4533 170.691 75.2826C170.573 75.112 170.514 74.8855 170.514 74.6033C170.514 74.3211 170.582 74.0782 170.72 73.8747C170.858 73.6647 171.048 73.5039 171.291 73.3923C171.541 73.2807 171.839 73.2249 172.187 73.2249C172.555 73.2249 172.88 73.2906 173.162 73.4218C173.451 73.5465 173.687 73.7369 173.871 73.9929L173.3 74.5639C173.169 74.3933 173.004 74.262 172.808 74.1701C172.617 74.0782 172.401 74.0323 172.158 74.0323C171.902 74.0323 171.705 74.0782 171.567 74.1701C171.436 74.2554 171.37 74.3768 171.37 74.5344C171.37 74.6919 171.429 74.8133 171.547 74.8987C171.665 74.984 171.82 75.0562 172.01 75.1153C172.207 75.1743 172.41 75.2367 172.62 75.3023C172.831 75.3614 173.031 75.4434 173.221 75.5485C173.411 75.6535 173.566 75.7946 173.684 75.9718C173.809 76.149 173.871 76.3821 173.871 76.6709C173.871 77.1106 173.713 77.4585 173.398 77.7145C173.09 77.9705 172.673 78.0985 172.148 78.0985ZM178.531 78L176.68 73.3234H177.606L178.945 76.9662H178.649L179.978 73.3234H180.49L181.82 76.9662H181.524L182.863 73.3234H183.789L181.948 78H181.426L180.077 74.4655H180.402L179.043 78H178.531ZM184.65 78V73.3234H185.536V78H184.65ZM185.093 72.388C184.929 72.388 184.794 72.3355 184.689 72.2305C184.584 72.1189 184.532 71.9811 184.532 71.817C184.532 71.6595 184.584 71.5282 184.689 71.4232C184.794 71.3116 184.929 71.2558 185.093 71.2558C185.257 71.2558 185.392 71.3116 185.497 71.4232C185.602 71.5282 185.654 71.6595 185.654 71.817C185.654 71.9811 185.602 72.1189 185.497 72.2305C185.392 72.3355 185.257 72.388 185.093 72.388ZM187.701 78V71.3641H188.587V78H187.701ZM186.549 74.1307V73.3234H189.739V74.1307H186.549ZM194.056 78V75.2728C194.056 74.9183 193.944 74.6263 193.721 74.3965C193.498 74.1668 193.209 74.0519 192.855 74.0519C192.619 74.0519 192.408 74.1045 192.225 74.2095C192.041 74.3145 191.897 74.4589 191.791 74.6427C191.686 74.8265 191.634 75.0365 191.634 75.2728L191.27 75.066C191.27 74.7116 191.348 74.3965 191.506 74.1209C191.663 73.8452 191.883 73.6286 192.166 73.4711C192.448 73.307 192.766 73.2249 193.121 73.2249C193.475 73.2249 193.787 73.3037 194.056 73.4612C194.332 73.6187 194.548 73.8386 194.706 74.1209C194.863 74.4031 194.942 74.728 194.942 75.0956V78H194.056ZM190.748 78V70.9703H191.634V78H190.748ZM128.848 90V89.1533H130.748C131.254 89.1533 131.697 89.045 132.077 88.8284C132.458 88.6052 132.753 88.3 132.964 87.9127C133.18 87.5255 133.288 87.0792 133.288 86.5738C133.288 86.0749 133.18 85.6319 132.964 85.2446C132.747 84.8574 132.448 84.5554 132.068 84.3388C131.687 84.1222 131.247 84.0139 130.748 84.0139H128.858V83.1672H130.768C131.267 83.1672 131.726 83.2525 132.146 83.4232C132.573 83.5938 132.941 83.8334 133.249 84.1419C133.564 84.4504 133.807 84.8114 133.978 85.2249C134.155 85.6384 134.243 86.0913 134.243 86.5836C134.243 87.0693 134.155 87.5222 133.978 87.9423C133.807 88.3558 133.567 88.7168 133.259 89.0253C132.95 89.3338 132.583 89.5734 132.156 89.744C131.736 89.9147 131.28 90 130.788 90H128.848ZM128.238 90V83.1672H129.163V90H128.238ZM137.645 90.0985C137.186 90.0985 136.772 89.9902 136.405 89.7736C136.037 89.557 135.745 89.2649 135.528 88.8973C135.312 88.5232 135.204 88.1064 135.204 87.6469C135.204 87.194 135.312 86.7871 135.528 86.4261C135.745 86.0585 136.037 85.7664 136.405 85.5498C136.772 85.3332 137.186 85.2249 137.645 85.2249C138.098 85.2249 138.508 85.3332 138.876 85.5498C139.25 85.7599 139.545 86.0487 139.762 86.4162C139.979 86.7838 140.087 87.194 140.087 87.6469C140.087 88.1064 139.979 88.5232 139.762 88.8973C139.545 89.2649 139.25 89.557 138.876 89.7736C138.508 89.9902 138.098 90.0985 137.645 90.0985ZM137.645 89.2419C137.941 89.2419 138.203 89.173 138.433 89.0351C138.663 88.8973 138.843 88.7102 138.974 88.4739C139.106 88.2311 139.171 87.9554 139.171 87.6469C139.171 87.345 139.102 87.0759 138.965 86.8396C138.833 86.6033 138.653 86.4195 138.423 86.2882C138.2 86.1504 137.941 86.0815 137.645 86.0815C137.35 86.0815 137.087 86.1504 136.858 86.2882C136.628 86.4195 136.447 86.6033 136.316 86.8396C136.185 87.0759 136.119 87.345 136.119 87.6469C136.119 87.9554 136.185 88.2311 136.316 88.4739C136.447 88.7102 136.628 88.8973 136.858 89.0351C137.087 89.173 137.35 89.2419 137.645 89.2419ZM144.534 90V87.2728C144.534 86.9183 144.423 86.6263 144.199 86.3965C143.976 86.1668 143.687 86.0519 143.333 86.0519C143.097 86.0519 142.887 86.1045 142.703 86.2095C142.519 86.3145 142.375 86.4589 142.27 86.6427C142.165 86.8265 142.112 87.0365 142.112 87.2728L141.748 87.066C141.748 86.7116 141.827 86.3965 141.984 86.1209C142.142 85.8452 142.362 85.6286 142.644 85.4711C142.926 85.307 143.244 85.2249 143.599 85.2249C143.953 85.2249 144.265 85.3135 144.534 85.4907C144.81 85.668 145.026 85.901 145.184 86.1898C145.341 86.472 145.42 86.7739 145.42 87.0956V90H144.534ZM141.226 90V85.3234H142.112V90H141.226ZM148.897 90.0985C148.438 90.0985 148.024 89.9902 147.656 89.7736C147.289 89.557 146.997 89.2649 146.78 88.8973C146.564 88.5232 146.455 88.1064 146.455 87.6469C146.455 87.194 146.564 86.7871 146.78 86.4261C146.997 86.0585 147.289 85.7664 147.656 85.5498C148.024 85.3332 148.438 85.2249 148.897 85.2249C149.35 85.2249 149.76 85.3332 150.128 85.5498C150.502 85.7599 150.797 86.0487 151.014 86.4162C151.23 86.7838 151.339 87.194 151.339 87.6469C151.339 88.1064 151.23 88.5232 151.014 88.8973C150.797 89.2649 150.502 89.557 150.128 89.7736C149.76 89.9902 149.35 90.0985 148.897 90.0985ZM148.897 89.2419C149.192 89.2419 149.455 89.173 149.685 89.0351C149.914 88.8973 150.095 88.7102 150.226 88.4739C150.357 88.2311 150.423 87.9554 150.423 87.6469C150.423 87.345 150.354 87.0759 150.216 86.8396C150.085 86.6033 149.905 86.4195 149.675 86.2882C149.452 86.1504 149.192 86.0815 148.897 86.0815C148.602 86.0815 148.339 86.1504 148.109 86.2882C147.88 86.4195 147.699 86.6033 147.568 86.8396C147.437 87.0759 147.371 87.345 147.371 87.6469C147.371 87.9554 147.437 88.2311 147.568 88.4739C147.699 88.7102 147.88 88.8973 148.109 89.0351C148.339 89.173 148.602 89.2419 148.897 89.2419ZM154.457 90.0985C154.024 90.0985 153.636 89.9934 153.295 89.7834C152.954 89.5668 152.681 89.2747 152.478 88.9071C152.281 88.5396 152.182 88.1261 152.182 87.6666C152.182 87.2072 152.281 86.7936 152.478 86.4261C152.681 86.0585 152.954 85.7664 153.295 85.5498C153.636 85.3332 154.024 85.2249 154.457 85.2249C154.805 85.2249 155.12 85.3004 155.402 85.4514C155.684 85.5958 155.911 85.7992 156.081 86.0618C156.258 86.3178 156.357 86.6164 156.377 86.9577V88.3656C156.357 88.7004 156.262 88.999 156.091 89.2616C155.92 89.5241 155.694 89.7309 155.412 89.8819C155.129 90.0263 154.811 90.0985 154.457 90.0985ZM154.604 89.2616C154.9 89.2616 155.156 89.1927 155.372 89.0548C155.596 88.917 155.769 88.7299 155.894 88.4936C156.019 88.2508 156.081 87.9751 156.081 87.6666C156.081 87.345 156.016 87.066 155.884 86.8297C155.76 86.5934 155.586 86.4064 155.363 86.2685C155.146 86.1307 154.89 86.0618 154.595 86.0618C154.299 86.0618 154.04 86.1307 153.817 86.2685C153.594 86.4064 153.416 86.5967 153.285 86.8396C153.16 87.0759 153.098 87.3483 153.098 87.6568C153.098 87.9718 153.16 88.2508 153.285 88.4936C153.416 88.7299 153.594 88.917 153.817 89.0548C154.046 89.1927 154.309 89.2616 154.604 89.2616ZM156.918 90H156.022V88.7398L156.19 87.5977L156.022 86.4655V82.9703H156.918V90ZM160.515 90.0985C160.049 90.0985 159.629 89.9934 159.255 89.7834C158.88 89.5668 158.585 89.2747 158.369 88.9071C158.152 88.5396 158.044 88.1228 158.044 87.6568C158.044 87.1973 158.149 86.7838 158.359 86.4162C158.575 86.0487 158.864 85.7599 159.225 85.5498C159.593 85.3332 160.003 85.2249 160.456 85.2249C160.889 85.2249 161.27 85.3234 161.598 85.5203C161.933 85.7172 162.192 85.9896 162.376 86.3375C162.566 86.6853 162.661 87.0792 162.661 87.5189C162.661 87.5846 162.658 87.6568 162.651 87.7355C162.645 87.8077 162.632 87.8931 162.612 87.9915H158.664V87.2531H162.139L161.814 87.5386C161.814 87.2236 161.759 86.9577 161.647 86.7411C161.535 86.518 161.378 86.3473 161.174 86.2292C160.971 86.1045 160.725 86.0421 160.436 86.0421C160.134 86.0421 159.868 86.1077 159.639 86.239C159.409 86.3703 159.232 86.5541 159.107 86.7904C158.982 87.0267 158.92 87.3056 158.92 87.6272C158.92 87.9554 158.985 88.2442 159.117 88.4936C159.248 88.7365 159.435 88.9268 159.678 89.0647C159.921 89.1959 160.2 89.2616 160.515 89.2616C160.777 89.2616 161.017 89.2156 161.234 89.1237C161.457 89.0319 161.647 88.894 161.805 88.7102L162.376 89.2911C162.152 89.5537 161.877 89.7539 161.549 89.8917C161.227 90.0295 160.882 90.0985 160.515 90.0985ZM165.904 90.0985C165.445 90.0985 165.028 89.9902 164.654 89.7736C164.287 89.557 163.994 89.2649 163.778 88.8973C163.568 88.5232 163.463 88.1097 163.463 87.6568C163.463 87.1973 163.568 86.7838 163.778 86.4162C163.994 86.0487 164.287 85.7599 164.654 85.5498C165.028 85.3332 165.445 85.2249 165.904 85.2249C166.265 85.2249 166.6 85.2938 166.909 85.4317C167.217 85.5629 167.483 85.7566 167.706 86.0126L167.115 86.6033C166.971 86.4326 166.794 86.3046 166.584 86.2193C166.38 86.1274 166.154 86.0815 165.904 86.0815C165.609 86.0815 165.347 86.1504 165.117 86.2882C164.887 86.4195 164.707 86.6033 164.575 86.8396C164.444 87.0759 164.378 87.3483 164.378 87.6568C164.378 87.9653 164.444 88.2377 164.575 88.4739C164.707 88.7102 164.887 88.8973 165.117 89.0351C165.347 89.173 165.609 89.2419 165.904 89.2419C166.154 89.2419 166.38 89.1992 166.584 89.1139C166.794 89.022 166.974 88.8907 167.125 88.7201L167.706 89.3108C167.49 89.5602 167.224 89.7539 166.909 89.8917C166.6 90.0295 166.265 90.0985 165.904 90.0985ZM168.726 90V82.9703H169.612V90H168.726ZM172.929 90.0985C172.549 90.0985 172.204 90.0131 171.896 89.8425C171.594 89.6653 171.357 89.4224 171.187 89.1139C171.016 88.8054 170.931 88.4477 170.931 88.0407V85.3234H171.817V88.0014C171.817 88.2573 171.859 88.4805 171.945 88.6709C172.037 88.8546 172.168 88.9958 172.339 89.0942C172.509 89.1927 172.709 89.2419 172.939 89.2419C173.287 89.2419 173.559 89.1336 173.756 88.917C173.953 88.6938 174.052 88.3886 174.052 88.0014V85.3234H174.938V88.0407C174.938 88.4477 174.852 88.8054 174.682 89.1139C174.511 89.4224 174.275 89.6653 173.973 89.8425C173.678 90.0131 173.33 90.0985 172.929 90.0985ZM176.985 90V83.3641H177.871V90H176.985ZM175.833 86.1307V85.3234H181.809V86.1307H175.833ZM179.771 90V83.3641H180.657V90H179.771ZM184.842 90.0985C184.376 90.0985 183.955 89.9934 183.581 89.7834C183.207 89.5668 182.912 89.2747 182.695 88.9071C182.479 88.5396 182.37 88.1228 182.37 87.6568C182.37 87.1973 182.475 86.7838 182.685 86.4162C182.902 86.0487 183.191 85.7599 183.552 85.5498C183.919 85.3332 184.33 85.2249 184.783 85.2249C185.216 85.2249 185.596 85.3234 185.925 85.5203C186.259 85.7172 186.519 85.9896 186.702 86.3375C186.893 86.6853 186.988 87.0792 186.988 87.5189C186.988 87.5846 186.985 87.6568 186.978 87.7355C186.972 87.8077 186.958 87.8931 186.939 87.9915H182.991V87.2531H186.466L186.141 87.5386C186.141 87.2236 186.085 86.9577 185.974 86.7411C185.862 86.518 185.705 86.3473 185.501 86.2292C185.298 86.1045 185.052 86.0421 184.763 86.0421C184.461 86.0421 184.195 86.1077 183.965 86.239C183.736 86.3703 183.558 86.5541 183.434 86.7904C183.309 87.0267 183.247 87.3056 183.247 87.6272C183.247 87.9554 183.312 88.2442 183.444 88.4936C183.575 88.7365 183.762 88.9268 184.005 89.0647C184.248 89.1959 184.527 89.2616 184.842 89.2616C185.104 89.2616 185.344 89.2156 185.56 89.1237C185.783 89.0319 185.974 88.894 186.131 88.7102L186.702 89.2911C186.479 89.5537 186.204 89.7539 185.875 89.8917C185.554 90.0295 185.209 90.0985 184.842 90.0985ZM188.095 90V85.3234H188.981V90H188.095ZM188.981 87.3319L188.646 87.1842C188.646 86.5869 188.784 86.111 189.06 85.7566C189.335 85.4021 189.732 85.2249 190.251 85.2249C190.487 85.2249 190.701 85.2676 190.891 85.3529C191.081 85.4317 191.258 85.5662 191.423 85.7566L190.842 86.3572C190.743 86.2521 190.635 86.1767 190.517 86.1307C190.399 86.0848 190.261 86.0618 190.103 86.0618C189.775 86.0618 189.506 86.1668 189.296 86.3768C189.086 86.5869 188.981 86.9052 188.981 87.3319Z" fill="#6C7E8E"/>
<circle cx="66.7943" cy="61.2057" r="28.7943" fill="#EAF0F5"/>
<circle cx="59.39" cy="40.6386" r="1.64539" fill="#FFB23F"/>
<circle cx="81.1916" cy="80.5392" r="1.23404" fill="#7DE2F0"/>
<circle cx="39.6452" cy="53.3903" r="1.23404" fill="#B5F0F9"/>
<circle cx="93.1204" cy="69.4329" r="2.46809" fill="#FFB23F"/>
<circle cx="47.0494" cy="80.9505" r="2.05674" fill="#3F8CFF"/>
<rect x="45.8154" y="48.8655" width="41.9574" height="24.962" rx="4.24886" fill="white"/>
<rect x="49.0024" y="68.5168" width="7.9666" height="2.12443" rx="1.06221" fill="#F6F8FA"/>
<rect x="49.0024" y="59.4875" width="20.1821" height="2.65553" rx="1.32777" fill="#EAF0F5"/>
<rect x="58.0312" y="68.5168" width="7.9666" height="2.12443" rx="1.06221" fill="#F6F8FA"/>
<rect x="67.0601" y="68.5168" width="7.9666" height="2.12443" rx="1.06221" fill="#F6F8FA"/>
<rect x="76.0889" y="68.5168" width="7.9666" height="2.12443" rx="1.06221" fill="#F6F8FA"/>
<circle cx="54.3132" cy="54.7078" r="2.65553" fill="#461959" fill-opacity="0.2"/>
<circle cx="51.658" cy="54.708" r="2.65553" fill="#581959"/>
<circle cx="89.0069" cy="38.9932" r="6.99291" fill="#581959" stroke="white" stroke-width="0.822695"/>
<path fill-rule="evenodd" clip-rule="evenodd" d="M92.3178 36.67C92.5106 36.8627 92.5106 37.1753 92.3178 37.368L88.3689 41.317C88.1761 41.5098 87.8636 41.5098 87.6708 41.317L85.6963 39.3425C85.5036 39.1497 85.5036 38.8372 85.6963 38.6444C85.8891 38.4517 86.2016 38.4517 86.3944 38.6444L88.0198 40.2699L91.6197 36.67C91.8125 36.4772 92.1251 36.4772 92.3178 36.67Z" fill="white"/>
<defs>
<filter id="filter0_d_111_1375" x="0" y="0" width="249" height="140" filterUnits="userSpaceOnUse" color-interpolation-filters="sRGB">
<feFlood flood-opacity="0" result="BackgroundImageFix"/>
<feColorMatrix in="SourceAlpha" type="matrix" values="0 0 0 0 0 0 0 0 0 0 0 0 0 0 0 0 0 0 127 0" result="hardAlpha"/>
<feOffset dy="8"/>
<feGaussianBlur stdDeviation="12"/>
<feComposite in2="hardAlpha" operator="out"/>
<feColorMatrix type="matrix" values="0 0 0 0 0 0 0 0 0 0 0 0 0 0 0 0 0 0 0.15 0"/>
<feBlend mode="normal" in2="BackgroundImageFix" result="effect1_dropShadow_111_1375"/>
<feBlend mode="normal" in="SourceGraphic" in2="effect1_dropShadow_111_1375" result="shape"/>
</filter>
</defs>
</svg>
