<svg width="39" height="35" viewBox="0 0 39 35" fill="none" xmlns="http://www.w3.org/2000/svg">
<path d="M38.41 17.2174C38.41 7.70855 29.9673 0 19.5528 0C9.13838 0 0.695679 7.70855 0.695679 17.2174C0.695679 25.811 7.5915 32.934 16.6064 34.2256V22.1943H11.8184V17.2174H16.6064V13.4242C16.6064 9.10908 19.4217 6.72554 23.7291 6.72554C25.7922 6.72554 27.9501 7.06182 27.9501 7.06182V11.2989H25.5724C23.2298 11.2989 22.4993 12.6261 22.4993 13.9878V17.2174H27.7292L26.8931 22.1943H22.4993V34.2256C31.5141 32.934 38.41 25.8112 38.41 17.2174Z" fill="#1877F2"/>
<path d="M26.8931 22.1943L27.7292 17.2174H22.4993V13.9878C22.4993 12.626 23.2299 11.299 25.5724 11.299H27.9502V7.06186C27.9502 7.06186 25.7922 6.72559 23.729 6.72559C19.4217 6.72559 16.6064 9.10912 16.6064 13.4242V17.2174H11.8185V22.1943H16.6064V34.2257C17.5811 34.3651 18.5663 34.4351 19.5529 34.4348C20.5395 34.4351 21.5246 34.3652 22.4993 34.2257V22.1943H26.8931Z" fill="white"/>
</svg>
