<svg width="36" height="34" viewBox="0 0 36 34" fill="none" xmlns="http://www.w3.org/2000/svg">
<g clip-path="url(#clip0_240_886)">
<path d="M27.4926 0H8.8988C4.36834 0 0.695679 3.56773 0.695679 7.96875V26.0312C0.695679 30.4323 4.36834 34 8.8988 34H27.4926C32.023 34 35.6957 30.4323 35.6957 26.0312V7.96875C35.6957 3.56773 32.023 0 27.4926 0Z" fill="url(#paint0_radial_240_886)"/>
<path d="M27.4926 0H8.8988C4.36834 0 0.695679 3.56773 0.695679 7.96875V26.0312C0.695679 30.4323 4.36834 34 8.8988 34H27.4926C32.023 34 35.6957 30.4323 35.6957 26.0312V7.96875C35.6957 3.56773 32.023 0 27.4926 0Z" fill="url(#paint1_radial_240_886)"/>
<path d="M18.1969 3.71875C14.4839 3.71875 14.0178 3.73455 12.5596 3.79897C11.1041 3.86378 10.1105 4.08757 9.24128 4.41602C8.34195 4.75522 7.57919 5.20904 6.81931 5.94748C6.05875 6.68578 5.59158 7.42674 5.2413 8.29998C4.90224 9.14467 4.6716 10.1102 4.60611 11.5235C4.54089 12.9402 4.5238 13.3931 4.5238 17.0001C4.5238 20.6072 4.54021 21.0585 4.60638 22.4751C4.67337 23.889 4.90375 24.8541 5.24158 25.6986C5.59103 26.5722 6.0582 27.3132 6.81835 28.0513C7.5781 28.7902 8.34085 29.245 9.23951 29.5842C10.1094 29.9127 11.1031 30.1365 12.5584 30.2013C14.0167 30.2657 14.4824 30.2815 18.1953 30.2815C21.9087 30.2815 22.3733 30.2657 23.8315 30.2013C25.287 30.1365 26.2816 29.9127 27.1516 29.5842C28.0505 29.245 28.8122 28.7902 29.5718 28.0513C30.3323 27.3132 30.7994 26.5722 31.1498 25.699C31.4858 24.8541 31.7166 23.8887 31.785 22.4753C31.8505 21.0588 31.8676 20.6072 31.8676 17.0001C31.8676 13.3931 31.8505 12.9405 31.785 11.5237C31.7166 10.1098 31.4858 9.1448 31.1498 8.30038C30.7994 7.42674 30.3323 6.68578 29.5718 5.94748C28.8113 5.20877 28.0508 4.75495 27.1508 4.41615C26.2792 4.08757 25.2851 3.86365 23.8296 3.79897C22.3712 3.73455 21.9069 3.71875 18.1927 3.71875H18.1969ZM16.9704 6.11216C17.3345 6.11163 17.7407 6.11216 18.1969 6.11216C21.8474 6.11216 22.28 6.12491 23.7216 6.18853C25.0546 6.24777 25.7781 6.46412 26.26 6.64594C26.8981 6.88659 27.353 7.1744 27.8312 7.63937C28.3097 8.10422 28.6059 8.54688 28.8543 9.16672C29.0414 9.63422 29.2644 10.3371 29.3251 11.632C29.3906 13.0321 29.4048 13.4526 29.4048 16.9971C29.4048 20.5416 29.3906 20.9622 29.3251 22.3622C29.2642 23.6571 29.0414 24.3599 28.8543 24.8276C28.6065 25.4474 28.3097 25.8887 27.8312 26.3533C27.3527 26.8182 26.8984 27.1058 26.26 27.3466C25.7786 27.5292 25.0546 27.7451 23.7216 27.8043C22.2803 27.8679 21.8474 27.8817 18.1969 27.8817C14.5462 27.8817 14.1135 27.8679 12.6724 27.8043C11.3394 27.7445 10.6159 27.5282 10.1335 27.3464C9.49558 27.1056 9.03976 26.8179 8.56124 26.3531C8.08273 25.8882 7.7866 25.4466 7.53818 24.8265C7.35101 24.3589 7.12802 23.656 7.06732 22.3611C7.00183 20.961 6.98871 20.5405 6.98871 16.9938C6.98871 13.4471 7.00183 13.0288 7.06732 11.6287C7.1283 10.3337 7.35101 9.6309 7.53818 9.16273C7.78605 8.5429 8.08273 8.10023 8.56138 7.63539C9.0399 7.17055 9.49558 6.88274 10.1336 6.64155C10.6156 6.45894 11.3394 6.24312 12.6724 6.18362C13.9336 6.12823 14.4224 6.11163 16.9704 6.10884V6.11216ZM25.495 8.31738C24.5892 8.31738 23.8543 9.03059 23.8543 9.9106C23.8543 10.7905 24.5892 11.5044 25.495 11.5044C26.4007 11.5044 27.1356 10.7905 27.1356 9.9106C27.1356 9.03072 26.4007 8.31685 25.495 8.31685V8.31738ZM18.1969 10.1795C14.3196 10.1795 11.1759 13.2334 11.1759 17.0001C11.1759 20.7668 14.3196 23.8193 18.1969 23.8193C22.0744 23.8193 25.217 20.7668 25.217 17.0001C25.217 13.2336 22.0741 10.1795 18.1966 10.1795H18.1969ZM18.1969 12.573C20.7138 12.573 22.7543 14.5549 22.7543 17.0001C22.7543 19.4451 20.7138 21.4273 18.1969 21.4273C15.6799 21.4273 13.6397 19.4451 13.6397 17.0001C13.6397 14.5549 15.6799 12.573 18.1969 12.573Z" fill="white"/>
</g>
<defs>
<radialGradient id="paint0_radial_240_886" cx="0" cy="0" r="1" gradientUnits="userSpaceOnUse" gradientTransform="translate(9.99255 36.6187) rotate(-90) scale(33.6965 32.2622)">
<stop stop-color="#FFDD55"/>
<stop offset="0.1" stop-color="#FFDD55"/>
<stop offset="0.5" stop-color="#FF543E"/>
<stop offset="1" stop-color="#C837AB"/>
</radialGradient>
<radialGradient id="paint1_radial_240_886" cx="0" cy="0" r="1" gradientUnits="userSpaceOnUse" gradientTransform="translate(-5.16696 2.4492) rotate(78.3571) scale(15.0798 63.841)">
<stop stop-color="#3771C8"/>
<stop offset="0.128" stop-color="#3771C8"/>
<stop offset="1" stop-color="#6600FF" stop-opacity="0"/>
</radialGradient>
<clipPath id="clip0_240_886">
<rect width="35" height="34" fill="white" transform="translate(0.695679)"/>
</clipPath>
</defs>
</svg>
