<svg width="187" height="47" viewBox="0 0 187 47" fill="none" xmlns="http://www.w3.org/2000/svg">
<path d="M45.696 22.832C45.696 31.6213 43.2213 37.744 38.272 41.2C33.7067 44.4 27.4347 46 19.456 46H1.344V44.784H5.568V2.416H1.344V1.2H21.12C29.312 1.2 35.456 2.88533 39.552 6.256C43.648 9.584 45.696 15.1093 45.696 22.832ZM18.048 44.784H20.48C24.7893 44.784 27.8613 43.2693 29.696 40.24C31.5733 37.168 32.512 32.048 32.512 24.88V21.168C32.512 11.568 30.6773 5.78666 27.008 3.824C25.2587 2.88533 22.784 2.416 19.584 2.416H18.048V44.784ZM80.3765 26.224V21.488C80.3765 13.68 79.9925 8.752 79.2245 6.704C78.3712 4.35733 77.1552 2.90666 75.5765 2.352C74.6805 2.01066 73.5925 1.84 72.3125 1.84C71.0325 1.84 69.9232 2.01066 68.9845 2.352C68.0885 2.69333 67.3418 3.29066 66.7445 4.144C66.1472 4.99733 65.6565 5.89333 65.2725 6.832C64.9312 7.77066 64.6538 9.09333 64.4405 10.8C64.1845 13.2747 64.0565 16.9227 64.0565 21.744V26.352C64.0565 31.5573 64.2485 35.2693 64.6325 37.488C65.0592 39.664 65.5712 41.2213 66.1685 42.16C67.4912 44.2507 69.5392 45.296 72.3125 45.296C75.6832 45.296 77.8592 43.888 78.8405 41.072C79.8645 38.2133 80.3765 33.264 80.3765 26.224ZM72.1845 46.64C65.0592 46.64 59.7258 44.72 56.1845 40.88C52.6858 36.9973 50.9365 31.408 50.9365 24.112C50.9365 16.7733 52.8138 11.0133 56.5685 6.832C60.3658 2.608 65.7205 0.495998 72.6325 0.495998C79.5445 0.495998 84.7498 2.50133 88.2485 6.512C91.7898 10.48 93.5605 16.1333 93.5605 23.472C93.5605 30.8107 91.7685 36.5067 88.1845 40.56C84.6432 44.6133 79.3098 46.64 72.1845 46.64ZM133.948 2.416V46H124.988L103.036 4.592V44.784H106.556V46H97.7875V44.784H101.308V2.416H97.7875V1.2H115.452L132.22 33.328V2.416H128.7V1.2H137.468V2.416H133.948ZM170.502 26.224V21.488C170.502 13.68 170.118 8.752 169.35 6.704C168.496 4.35733 167.28 2.90666 165.702 2.352C164.806 2.01066 163.718 1.84 162.438 1.84C161.158 1.84 160.048 2.01066 159.11 2.352C158.214 2.69333 157.467 3.29066 156.87 4.144C156.272 4.99733 155.782 5.89333 155.398 6.832C155.056 7.77066 154.779 9.09333 154.566 10.8C154.31 13.2747 154.182 16.9227 154.182 21.744V26.352C154.182 31.5573 154.374 35.2693 154.758 37.488C155.184 39.664 155.696 41.2213 156.294 42.16C157.616 44.2507 159.664 45.296 162.438 45.296C165.808 45.296 167.984 43.888 168.966 41.072C169.99 38.2133 170.502 33.264 170.502 26.224ZM162.31 46.64C155.184 46.64 149.851 44.72 146.31 40.88C142.811 36.9973 141.062 31.408 141.062 24.112C141.062 16.7733 142.939 11.0133 146.694 6.832C150.491 2.608 155.846 0.495998 162.758 0.495998C169.67 0.495998 174.875 2.50133 178.374 6.512C181.915 10.48 183.686 16.1333 183.686 23.472C183.686 30.8107 181.894 36.5067 178.31 40.56C174.768 44.6133 169.435 46.64 162.31 46.64Z" fill="#3C5A82"/>
<rect x="5" y="17" width="179" height="15" fill="#D9D9D9"/>
<path d="M69.3516 21.1406H72.1055C72.7826 21.1406 73.375 21.3001 73.8828 21.6191C74.7031 22.14 75.1133 22.957 75.1133 24.0703C75.1133 24.9297 74.8366 25.6296 74.2832 26.1699C73.7103 26.7233 72.9779 27 72.0859 27H69.3516V26.7461H70.1328V21.3945H69.3516V21.1406ZM72.0859 21.3945H71.0703V26.7461H72.1055C73.4076 26.7396 74.0618 25.8346 74.0684 24.0312C74.0684 23.543 74.0195 23.1198 73.9219 22.7617C73.668 21.8503 73.056 21.3945 72.0859 21.3945ZM80.5918 22.918H80.377L80.2207 22.4199C80.2207 22.4069 80.2174 22.3939 80.2109 22.3809C80.0091 21.7233 79.6576 21.3945 79.1562 21.3945H77.6816V23.8359H79.6738V24.1191H77.6816V26.7461H79.1562C79.2539 26.7461 79.3483 26.7331 79.4395 26.707C79.791 26.6094 80.0514 26.2806 80.2207 25.7207L80.377 25.2227H80.5918L80.543 27H75.9629V26.7461H76.7441V21.3945H75.9629V21.1406H80.543L80.5918 22.918ZM86.4121 26.5605C85.8132 26.9121 85.1816 27.0911 84.5176 27.0977C83.6126 27.0977 82.8802 26.7982 82.3203 26.1992C81.7865 25.6198 81.5195 24.9036 81.5195 24.0508C81.5195 23.3477 81.7116 22.7259 82.0957 22.1855C82.6491 21.4238 83.4466 21.043 84.4883 21.043C84.625 21.043 84.7617 21.0495 84.8984 21.0625C85.5104 21.1276 86.002 21.3034 86.373 21.5898C86.373 21.4336 86.3796 21.3164 86.3926 21.2383C86.4251 21.1406 86.5163 21.0918 86.666 21.0918L86.6953 22.918H86.4414C86.1289 21.8633 85.4974 21.3294 84.5469 21.3164C84.2083 21.3164 83.9023 21.401 83.6289 21.5703C82.9518 21.987 82.6133 22.8171 82.6133 24.0605C82.6133 24.5293 82.6621 24.9492 82.7598 25.3203C83.0202 26.3229 83.6029 26.8242 84.5078 26.8242C85.4909 26.8177 86.1452 26.2708 86.4707 25.1836H86.7246V27.0488C86.6465 27.0488 86.5879 27.0423 86.5488 27.0293C86.4577 26.9902 86.4121 26.834 86.4121 26.5605ZM91.8418 27H87.4668V26.7461H88.248V21.3945H87.4668V21.1406H90.0156V21.3945H89.1855V26.7461H90.4648C90.556 26.7461 90.6439 26.7363 90.7285 26.7168C91.0866 26.6257 91.3405 26.2936 91.4902 25.7207L91.6758 25.0176H91.8906L91.8418 27ZM92.0664 21.3945V21.1406H94.5566V21.3945H93.7852V24.7539C93.7852 25.1445 93.8242 25.4831 93.9023 25.7695C94.0977 26.4727 94.5859 26.8242 95.3672 26.8242C95.4128 26.8242 95.4616 26.8242 95.5137 26.8242C96.5033 26.7526 96.998 26.069 96.998 24.7734V21.3945H96.2168V21.1406H98.1211V21.3945H97.3398V24.7148C97.3398 25.1055 97.3008 25.4473 97.2227 25.7402C96.9753 26.6452 96.2884 27.0977 95.1621 27.0977C93.6322 27.0911 92.8607 26.3294 92.8477 24.8125V21.3945H92.0664ZM102.33 27H99.5371V26.7461H100.465V21.3945H100.016C99.4753 21.401 99.1139 21.7363 98.9316 22.4004L98.7461 23.0938H98.4727L98.5215 21.1406H103.395L103.434 23.0938H103.16L102.975 22.4004C102.799 21.7363 102.441 21.401 101.9 21.3945H101.402V26.7461H102.076C102.109 26.7461 102.141 26.7493 102.174 26.7559C102.278 26.7754 102.33 26.8568 102.33 27ZM107.896 27H105.104V26.7461H106.031V21.3945H105.582C105.042 21.401 104.68 21.7363 104.498 22.4004L104.312 23.0938H104.039L104.088 21.1406H108.961L109 23.0938H108.727L108.541 22.4004C108.365 21.7363 108.007 21.401 107.467 21.3945H106.969V26.7461H107.643C107.675 26.7461 107.708 26.7493 107.74 26.7559C107.844 26.7754 107.896 26.8568 107.896 27ZM114.283 22.918H114.068L113.912 22.4199C113.912 22.4069 113.909 22.3939 113.902 22.3809C113.701 21.7233 113.349 21.3945 112.848 21.3945H111.373V23.8359H113.365V24.1191H111.373V26.7461H112.848C112.945 26.7461 113.04 26.7331 113.131 26.707C113.482 26.6094 113.743 26.2806 113.912 25.7207L114.068 25.2227H114.283L114.234 27H109.654V26.7461H110.436V21.3945H109.654V21.1406H114.234L114.283 22.918ZM117.613 27H115.113V26.7461H115.895V21.3945H115.113V21.1406H118.082C118.59 21.1406 119.02 21.2578 119.371 21.4922C119.794 21.7852 120.006 22.1758 120.006 22.6641C120.006 22.8594 119.967 23.0514 119.889 23.2402C119.667 23.735 119.244 24.0638 118.619 24.2266L120.182 26.7461H120.504C120.543 26.7461 120.579 26.7493 120.611 26.7559C120.696 26.7689 120.738 26.8503 120.738 27H119.215L117.672 24.3145H116.832V26.7461H117.613V27ZM117.73 21.3945H116.832V24.0312H117.77C118.049 24.0312 118.29 23.9499 118.492 23.7871C118.818 23.5332 118.98 23.1654 118.98 22.6836C118.98 22.4753 118.941 22.2767 118.863 22.0879C118.655 21.6257 118.277 21.3945 117.73 21.3945Z" fill="black"/>
</svg>
