<svg width="38" height="32" viewBox="0 0 38 32" fill="none" xmlns="http://www.w3.org/2000/svg">
<g clip-path="url(#clip0_114_1232)">
<path d="M19.4918 25.9889C20.046 25.9889 20.5147 25.8326 20.8978 25.5201C21.281 25.2075 21.4721 24.8256 21.471 24.3743C21.471 23.9223 21.2799 23.5399 20.8978 23.2273C20.5157 22.9148 20.0471 22.7589 19.4918 22.7598C18.9377 22.7598 18.4695 22.9161 18.0874 23.2286C17.7053 23.5412 17.5137 23.9231 17.5127 24.3743C17.5127 24.8264 17.7043 25.2088 18.0874 25.5213C18.4706 25.8339 18.9387 25.9898 19.4918 25.9889ZM18.0668 21.016H20.996C20.996 20.3056 21.0952 19.7459 21.2937 19.3368C21.4921 18.9278 22.0526 18.3681 22.9752 17.6577C23.6613 17.098 24.2023 16.5649 24.5981 16.0586C24.9939 15.5523 25.1918 14.9443 25.1918 14.2348C25.1918 13.0292 24.6509 12.1035 23.5689 11.4577C22.487 10.8118 21.2071 10.4889 19.7293 10.4889C18.2252 10.4889 17.0049 10.8118 16.0687 11.4577C15.1324 12.1035 14.479 12.8785 14.1085 13.7827L16.721 14.6223C16.8529 14.2348 17.1501 13.815 17.6124 13.3629C18.0748 12.9108 18.7804 12.6848 19.7293 12.6848C20.5738 12.6848 21.2071 12.8733 21.6293 13.2505C22.0516 13.6277 22.2627 14.0419 22.2627 14.4931C22.2627 14.9237 22.1043 15.3275 21.7877 15.7047C21.471 16.0818 21.0752 16.4315 20.6002 16.7535C19.4391 17.5931 18.7266 18.2282 18.4627 18.6587C18.1988 19.0893 18.0668 19.875 18.0668 21.016ZM19.571 31.1556C17.3807 31.1556 15.3224 30.8167 13.396 30.1391C11.4696 29.4614 9.79392 28.5408 8.36892 27.3775C6.94392 26.215 5.81606 24.848 4.98534 23.2764C4.15462 21.7049 3.73873 20.0257 3.73767 18.2389C3.73767 16.4521 4.15356 14.773 4.98534 13.2014C5.81712 11.6299 6.94498 10.2629 8.36892 9.10039C9.79392 7.93789 11.4696 7.01779 13.396 6.3401C15.3224 5.6624 17.3807 5.32313 19.571 5.32227C21.7613 5.32227 23.8196 5.66154 25.746 6.3401C27.6724 7.01865 29.3481 7.93875 30.7731 9.10039C32.1981 10.2629 33.3265 11.6299 34.1583 13.2014C34.99 14.773 35.4054 16.4521 35.4043 18.2389C35.4043 20.0257 34.9884 21.7049 34.1567 23.2764C33.3249 24.848 32.197 26.215 30.7731 27.3775C29.3481 28.54 27.6724 29.4605 25.746 30.1391C23.8196 30.8176 21.7613 31.1565 19.571 31.1556Z" fill="black"/>
</g>
<defs>
<clipPath id="clip0_114_1232">
<rect width="38" height="31" fill="white" transform="translate(0 0.5)"/>
</clipPath>
</defs>
</svg>
