<svg width="53" height="43" viewBox="0 0 53 43" fill="none" xmlns="http://www.w3.org/2000/svg">
<path d="M44.2351 37.2487C45.2509 38.0728 46.8189 36.8008 45.803 35.9945L37.5218 29.2578C40.4267 26.6501 42.0324 23.259 42.0268 19.7441C42.0268 11.8787 34.143 5.48242 24.4485 5.48242C14.7539 5.48242 6.87012 11.8787 6.87012 19.7441C6.87012 27.6095 14.7539 34.0058 24.4485 34.0058C28.8209 34.0058 32.8622 32.6978 35.9539 30.5299L44.2351 37.2487ZM9.07624 19.7441C9.07624 12.8641 15.9883 7.27409 24.4462 7.27409C32.9262 7.27409 39.8162 12.8641 39.8162 19.7441C39.8162 26.6241 32.9262 32.2141 24.4462 32.2141C15.9883 32.2141 9.07624 26.6241 9.07624 19.7441Z" fill="black"/>
</svg>
